<?xml version="1.0" encoding="UTF-8"?>
<svg width="22px" height="22px" viewBox="0 0 22 22" version="1.1" xmlns="http://www.w3.org/2000/svg" xmlns:xlink="http://www.w3.org/1999/xlink">
    <title>Graphic</title>
    <g id="Graphic" stroke="none" fill="none" fill-rule="nonzero">
        <path d="M2.0625,11 C2.0625,6.06375 6.06375,2.0625 11,2.0625 C15.93625,2.0625 19.9375,6.06375 19.9375,11 C19.9375,15.93625 15.93625,19.9375 11,19.9375 C6.06375,19.9375 2.0625,15.93625 2.0625,11 Z M14.3091667,9.33716667 C14.4588868,9.13766789 14.4888085,8.87272584 14.3873537,8.64486011 C14.2858989,8.41699438 14.0689842,8.26195371 13.8205449,8.23973123 C13.5721057,8.21750875 13.3311184,8.33159085 13.1908333,8.53783333 L10.2245,12.6903333 L8.73583333,11.2016667 C8.46494939,10.9492544 8.04282442,10.9567023 7.78101335,11.2185134 C7.51920228,11.4803244 7.51175438,11.9024494 7.76416667,12.1733333 L9.82666667,14.2358333 C9.96950553,14.3785645 10.1678705,14.4512827 10.369116,14.4346887 C10.5703615,14.4180948 10.7541362,14.3138668 10.8716667,14.1496667 L14.3091667,9.33716667 L14.3091667,9.33716667 Z" id="Shape" fill="#14B8A6"></path>
    </g>
</svg>