<?xml version="1.0" encoding="UTF-8"?>
<svg width="22px" height="22px" viewBox="0 0 22 22" version="1.1" xmlns="http://www.w3.org/2000/svg" xmlns:xlink="http://www.w3.org/1999/xlink">
    <title>Graphic 2</title>
    <g id="Graphic" stroke="none" fill="none" fill-rule="nonzero">
        <path d="M11,2.0625 C15.93625,2.0625 19.9375,6.06375 19.9375,11 C19.9375,15.93625 15.93625,19.9375 11,19.9375 C6.06375,19.9375 2.0625,15.93625 2.0625,11 C2.0625,6.06375 6.06375,2.0625 11,2.0625 Z M13.3898917,6.3745 C12.0478434,5.2085 9.90462734,5.2085 8.56257905,6.3745 C8.27481884,6.62459294 8.2456852,7.05900732 8.49750724,7.34479167 C8.74932928,7.63057601 9.18674712,7.65950961 9.47450732,7.40941667 C10.2950582,6.69716667 11.6574126,6.69716667 12.4788864,7.40941667 C13.24498,8.07583333 13.24498,9.11166667 12.4788864,9.77808333 C12.3385897,9.89908333 12.182602,10.0008333 12.0146152,10.0815 C11.2623667,10.4435833 10.2839821,11.2025833 10.2839821,12.375 L10.2839821,13.0625 C10.2839821,13.4421958 10.5939145,13.75 10.9762354,13.75 C11.3585563,13.75 11.6684886,13.4421958 11.6684886,13.0625 L11.6684886,12.375 C11.6684886,12.0285 11.9933861,11.6196667 12.6173371,11.319 C12.8965007,11.1854376 13.1563408,11.0152502 13.3898917,10.813 C14.7863972,9.59933333 14.7863972,7.58816667 13.3898917,6.3745 Z M11,16.5 C11.3796958,16.5 11.6875,16.1921958 11.6875,15.8125 C11.6875,15.4328042 11.3796958,15.125 11,15.125 C10.6203042,15.125 10.3125,15.4328042 10.3125,15.8125 C10.3125,16.1921958 10.6203042,16.5 11,16.5 Z" id="Shape" fill="#F59E0B"></path>
    </g>
</svg>