<?xml version="1.0" encoding="UTF-8"?>
<svg width="181px" height="43px" viewBox="0 0 181 43" version="1.1" xmlns="http://www.w3.org/2000/svg" xmlns:xlink="http://www.w3.org/1999/xlink">
    <!-- Generator: Sketch 63.1 (92452) - https://sketch.com -->
    <title>Untitled</title>
    <desc>Created with Sketch.</desc>
    <g id="Page-1" stroke="none" stroke-width="1" fill="none" fill-rule="evenodd">
        <g id="FA_Logo_Wht" fill-rule="nonzero">
            <path d="M20.52,-7.58941521e-17 C19.3022686,-0.0202983302 18.193108,0.697618021 17.71297,1.8168808 C17.232832,2.93614359 17.4770103,4.23461125 18.330929,5.10300316 C19.1848477,5.97139507 20.4790284,6.23736034 21.6062021,5.77609997 C22.7333758,5.31483959 23.4698308,4.21790051 23.47,3 C23.4702274,1.36247717 22.1572954,0.0272920317 20.52,-7.58941521e-17 Z" id="Path" fill="#F58320"></path>
            <path d="M37.55,28.16 C35.8931458,28.16 34.55,29.5031458 34.55,31.16 C34.55,32.8168542 35.8931458,34.16 37.55,34.16 C39.2068542,34.16 40.55,32.8168542 40.55,31.16 C40.55,29.5031458 39.2068542,28.16 37.55,28.16 Z" id="Path" fill="#F58320"></path>
            <path d="M3.48,28.16 C1.82314575,28.16 0.48,29.5031458 0.48,31.16 C0.48,32.8168542 1.82314575,34.16 3.48,34.16 C5.13685425,34.16 6.48,32.8168542 6.48,31.16 C6.48,30.3643505 6.16392948,29.6012888 5.60132034,29.0386797 C5.03871121,28.4760705 4.27564947,28.16 3.48,28.16 Z" id="Path" fill="#F58320"></path>
            <path d="M23,20.08 C22.9995522,19.3782195 22.6981846,18.7103226 22.1722979,18.2456299 C21.6464112,17.7809373 20.9464996,17.5640675 20.25,17.65 C19.1942316,17.7680211 18.3361568,18.5555794 18.1282533,19.5973817 C17.9203498,20.639184 18.4104032,21.6957766 19.34,22.21 L18.56,26.13 C18.5361879,26.2527145 18.5682747,26.3796586 18.6475369,26.4763198 C18.726799,26.5729809 18.8449984,26.6293127 18.97,26.63 L22.12,26.63 C22.2450016,26.6293127 22.363201,26.5729809 22.4424631,26.4763198 C22.5217253,26.3796586 22.5538121,26.2527145 22.53,26.13 L21.75,22.21 C22.5202191,21.7772963 22.9978346,20.9634395 23,20.08 Z" id="Path" fill="#F58320"></path>
            <path d="M20.52,11 C14.4003779,11 9.4374111,15.957097 9.43007196,22.0767147 C9.42274909,28.1963325 14.373825,33.1652662 20.4934295,33.1800007 C26.613034,33.1946698 31.5879274,28.2495823 31.6100722,22.13 C31.6206337,19.1818247 30.4569224,16.3507529 28.3759903,14.2623152 C26.2950582,12.1738774 23.4681945,11 20.52,11 Z M20.52,30.69 C15.7703512,30.69 11.92,26.8396488 11.92,22.09 C11.92,17.3403512 15.7703512,13.49 20.52,13.49 C25.2696488,13.49 29.1200524,17.3403512 29.1200524,22.09 C29.1279701,24.3769756 28.2257403,26.5731596 26.612351,28.1940531 C24.9989616,29.8149465 22.8069879,30.7273577 20.52,30.73 L20.52,30.69 Z" id="Shape" fill="#FFFFFF"></path>
            <path d="M31.62,37.67 C31.2121604,37.2014589 30.5221366,37.1034926 30,37.44 C22.536166,42.0789342 12.8136473,40.6501467 7,34.06 C6.47577623,34.7096702 5.78430137,35.2040747 5,35.49 C11.5751263,43.1699826 22.7707493,44.9028408 31.36,39.57 C31.6678716,39.3686702 31.8733229,39.0437398 31.9231964,38.6792795 C31.9730699,38.3148192 31.8624654,37.9466391 31.62,37.67 Z" id="Path" fill="#FFFFFF"></path>
            <path d="M38.54,22.13 C38.5453242,23.610219 38.3638919,25.0851971 38,26.52 C38.8493184,26.6074725 39.6585248,26.925622 40.34,27.44 C40.8081098,25.7089404 41.0435139,23.9232322 41.0400388,22.13 C41.0468499,14.8860032 37.2300574,8.1762036 31,4.48 C30.6170967,4.23227811 30.129671,4.2127466 29.7281744,4.429037 C29.3266777,4.64532741 29.0748373,5.06310921 29.0710112,5.51914297 C29.0672716,5.97517673 29.3121467,6.39707886 29.71,6.62 C35.1896456,9.86411213 38.5474041,15.7620549 38.54,22.13 Z" id="Path" fill="#FFFFFF"></path>
            <path d="M17.9,4.24 C17.6661684,3.80064443 17.5523409,3.30739187 17.57,2.81 C17.5650537,2.85987767 17.5650537,2.91012233 17.57,2.96 C17.5712732,3.42544254 17.6808284,3.88420485 17.89,4.3 L17.94,4.3 L17.9,4.24 Z" id="Path" fill="#FFFFFF"></path>
            <path d="M15.9,3 C15.9049515,2.70413305 15.93844,2.40943415 16,2.12 C6.99626439,4.12714264 0.445624776,11.9060272 -1.98192157e-15,21.12 C-0.0386599325,21.8103559 0.489644063,22.4013401 1.18,22.44 C1.87035594,22.4786599 2.46134007,21.9503559 2.5,21.26 C2.8795336,13.2908886 8.45954776,6.52242503 16.21,4.63 C16.0093604,4.10976558 15.9043411,3.55756727 15.9,3 Z" id="Path" fill="#FFFFFF"></path>
            <polygon id="Path" fill="#FFFFFF" points="54.61 12.54 66.61 12.54 66.61 15.54 57.91 15.54 57.91 20.4 66.07 20.4 66.07 23.4 57.91 23.4 57.91 31.09 54.61 31.09"></polygon>
            <path d="M79.11,31.05 L76.11,31.05 L76.11,29 L76.11,29 C75.794133,29.6446587 75.3276455,30.2037577 74.75,30.63 C74.0219465,31.126984 73.1501135,31.3695505 72.27,31.32 C71.5392948,31.3439943 70.8122173,31.2074539 70.14,30.92 C69.5831339,30.6714403 69.0930829,30.2944779 68.71,29.82 C68.3388333,29.3559158 68.0727184,28.8168625 67.93,28.24 C67.7678748,27.6333855 67.6871669,27.0078994 67.6899279,26.38 L67.6899279,18.5 L70.8,18.5 L70.8,24.85 C70.8,25.2 70.8,25.59 70.8,26.02 C70.8363195,26.4311959 70.9305855,26.8351929 71.08,27.22 C71.2184772,27.5885323 71.4533097,27.9131538 71.76,28.16 C72.1332476,28.4317698 72.5890282,28.5660307 73.05,28.54 C73.5038115,28.5519955 73.9546354,28.4631968 74.37,28.28 C75.0679341,27.9367286 75.5798265,27.3041759 75.77,26.55 C75.8748415,26.1585701 75.9286208,25.7552249 75.93,25.35 L75.93,18.5 L79.06,18.5 L79.11,31.05 Z" id="Path" fill="#FFFFFF"></path>
            <path d="M88.82,22 C88.2755276,21.1777412 87.3458417,20.6940022 86.36,20.72 C85.930746,20.720615 85.5082697,20.8270927 85.13,21.03 C84.7499627,21.2154804 84.5148181,21.6073881 84.53,22.03 C84.5124006,22.3823716 84.7046095,22.7118726 85.02,22.87 C85.4214273,23.0652456 85.8442949,23.2129136 86.28,23.31 L87.91,23.69 C88.4814431,23.8143698 89.033213,24.0162368 89.55,24.29 C90.0479917,24.556792 90.4762026,24.9370432 90.8,25.4 C91.1612509,25.9802697 91.3357703,26.6574053 91.3,27.34 C91.3228279,28.0028102 91.1563279,28.658404 90.82,29.23 C90.5027949,29.7388805 90.0713918,30.1668597 89.56,30.48 C89.0222498,30.8026649 88.4340375,31.0325409 87.82,31.16 C87.1849375,31.2908064 86.5383902,31.3578061 85.89,31.36 C84.9738947,31.3681881 84.0623779,31.2297726 83.19,30.95 C82.3381497,30.6464561 81.5823286,30.1218679 81,29.43 L83.09,27.43 C83.4650765,27.8594124 83.8994447,28.2331711 84.38,28.54 C84.8916432,28.8395156 85.4774261,28.9885609 86.07,28.97 C86.3087381,28.9670093 86.5465824,28.94021 86.78,28.89 C87.0188428,28.8393398 87.2482857,28.7516116 87.46,28.63 C87.663077,28.5178766 87.8375906,28.3604722 87.97,28.17 C88.1012733,27.9830181 88.1679798,27.7583226 88.16,27.53 C88.196658,27.1312376 88.0075886,26.7453816 87.67,26.53 C87.2758265,26.3044451 86.8515791,26.1360929 86.41,26.03 C85.9,25.89 85.41,25.77 84.78,25.66 C84.2107415,25.5525748 83.6589239,25.367514 83.14,25.11 C82.6444551,24.861873 82.2157627,24.4983418 81.89,24.05 C81.5278781,23.4923486 81.3527501,22.8338673 81.39,22.17 C81.3719198,21.5361903 81.5201731,20.9086998 81.82,20.35 C82.1205425,19.8682818 82.5234006,19.4585955 83,19.15 C83.4920848,18.8118972 84.0407468,18.5646607 84.62,18.42 C85.2271021,18.2603604 85.8522598,18.1796949 86.48,18.1799991 C87.3257187,18.1840666 88.1645,18.3328826 88.96,18.62 C89.7634641,18.889803 90.462655,19.4037084 90.96,20.09 L88.82,22 Z" id="Path" fill="#FFFFFF"></path>
            <path d="M92.659967,14.24 C92.6569926,13.7416704 92.8595781,13.2641475 93.22,12.92 C93.5969832,12.5398951 94.1149093,12.3334491 94.65,12.35 C95.1849647,12.3357999 95.7046405,12.5293344 96.1,12.89 C96.4835042,13.2328792 96.6988602,13.725643 96.69,14.24 C96.7013547,14.7519749 96.4853014,15.2426722 96.1,15.58 C95.7046405,15.9406656 95.1849647,16.1342001 94.65,16.12 C94.1178034,16.1310729 93.6031493,15.92953 93.22,15.56 C92.862518,15.2138278 92.6604916,14.7376227 92.659967,14.24 Z M93.1,18.5 L96.24,18.5 L96.24,31.05 L93.1,31.05 L93.1,18.5 Z" id="Shape" fill="#FFFFFF"></path>
            <path d="M98,24.77 C97.9875711,23.8419887 98.1715998,22.9218455 98.54,22.07 C99.2189718,20.4786952 100.531004,19.242775 102.16,18.66 C103.882537,18.0203616 105.777463,18.0203616 107.5,18.66 C109.128996,19.242775 110.441028,20.4786952 111.12,22.07 C111.826438,23.8041483 111.826438,25.7458517 111.12,27.48 C110.779513,28.2627015 110.286598,28.9697794 109.67,29.56 C109.044343,30.1459014 108.306041,30.5984091 107.5,30.89 C105.77514,31.516576 103.88486,31.516576 102.16,30.89 C101.357515,30.5971991 100.622717,30.144754 100,29.56 C99.3834022,28.9697794 98.8904873,28.2627015 98.55,27.48 C98.1770719,26.6257299 97.9896121,25.7020648 98,24.77 L98,24.77 Z M101.14,24.77 C101.142625,25.2540478 101.227152,25.7341606 101.39,26.19 C101.729771,27.084317 102.414271,27.8048433 103.29,28.19 C104.275511,28.6011116 105.384489,28.6011116 106.37,28.19 C107.245729,27.8048433 107.930229,27.084317 108.27,26.19 C108.603286,25.2761047 108.603286,24.2738953 108.27,23.36 C107.930229,22.465683 107.245729,21.7451567 106.37,21.36 C105.384489,20.9488884 104.275511,20.9488884 103.29,21.36 C102.414271,21.7451567 101.729771,22.465683 101.39,23.36 C101.224481,23.8119862 101.136575,24.2887051 101.13,24.77 L101.14,24.77 Z" id="Shape" fill="#FFFFFF"></path>
            <path d="M113.32,18.5 L116.32,18.5 L116.32,20.5 L116.32,20.5 C116.63316,19.8535896 117.100146,19.2938931 117.68,18.87 C118.409574,18.3673486 119.285382,18.1211374 120.17,18.17 C120.902388,18.149988 121.630029,18.2934665 122.3,18.59 C122.850604,18.8442747 123.336179,19.2204242 123.72,19.69 C124.092141,20.1510984 124.361485,20.6863764 124.51,21.26 C124.663929,21.8679833 124.741195,22.4928348 124.740014,23.12 L124.740014,31.04 L121.6,31.04 L121.6,24.7 C121.6,24.35 121.6,23.96 121.6,23.53 C121.572406,23.118472 121.48133,22.7136875 121.33,22.33 C121.186847,21.9586431 120.944765,21.6335609 120.63,21.39 C120.259461,21.1204452 119.807599,20.9862987 119.35,21.01 C118.896188,20.9980045 118.445365,21.0868032 118.03,21.27 C117.682288,21.4344468 117.377594,21.677518 117.14,21.98 C116.906055,22.2766555 116.732764,22.616442 116.63,22.98 C116.528533,23.3718715 116.478115,23.7752095 116.48,24.18 L116.48,31.03 L113.34,31.03 L113.32,18.5 Z" id="Path" fill="#FFFFFF"></path>
            <path d="M134.06,12.54 L136.91,12.54 L144.91,31.05 L141.15,31.05 L139.42,26.81 L131.42,26.81 L129.75,31.05 L126,31.05 L134.06,12.54 Z M138.24,24 L135.39,16.47 L132.49,24 L138.24,24 Z" id="Shape" fill="#F58320"></path>
            <path d="M156.83,31.05 L153.83,31.05 L153.83,29 L153.83,29 C153.514133,29.6446587 153.047646,30.2037577 152.47,30.63 C151.739185,31.1291211 150.863477,31.3717872 149.98,31.32 C149.249518,31.3411181 148.523053,31.2046928 147.85,30.92 C147.296162,30.6710801 146.809445,30.2940454 146.43,29.82 C146.059414,29.3541566 145.790323,28.815975 145.64,28.24 C145.486071,27.6320167 145.408805,27.0071652 145.409986,26.38 L145.409986,18.5 L148.55,18.5 L148.55,24.85 C148.55,25.2 148.55,25.59 148.55,26.02 C148.577594,26.431528 148.66867,26.8363125 148.82,27.22 C148.96529,27.5848306 149.198957,27.9078418 149.5,28.16 C149.875951,28.4340039 150.33566,28.5683804 150.8,28.54 C151.253812,28.5519955 151.704635,28.4631968 152.12,28.28 C152.463925,28.1095432 152.767388,27.8674552 153.01,27.57 C153.243945,27.2733445 153.417236,26.933558 153.52,26.57 C153.621467,26.1781285 153.671885,25.7747905 153.67,25.37 L153.67,18.5 L156.81,18.5 L156.83,31.05 Z" id="Path" fill="#F58320"></path>
            <path d="M157.9,21.17 L157.9,18.5 L160.49,18.5 L160.49,14.86 L163.63,14.86 L163.63,18.5 L167.08,18.5 L167.08,21.17 L163.63,21.17 L163.63,26.66 C163.606551,27.1794842 163.727712,27.6952861 163.98,28.15 C164.321629,28.5610648 164.849927,28.7686102 165.38,28.7 C165.688733,28.6974243 165.996621,28.6673049 166.3,28.61 C166.579,28.5630015 166.844854,28.4573417 167.08,28.3 L167.08,31 C166.695062,31.1669329 166.287135,31.2748144 165.87,31.32 C165.448884,31.3757354 165.024767,31.4057909 164.6,31.41 C163.923324,31.4250033 163.248475,31.3338987 162.6,31.14 C162.105956,30.9912233 161.667349,30.6988183 161.34,30.3 C161.018463,29.8920016 160.802118,29.4112368 160.71,28.9 C160.590998,28.2636856 160.534064,27.6173193 160.54,26.97 L160.54,21.17 L157.9,21.17 Z" id="Path" fill="#F58320"></path>
            <path d="M171.68,20.25 L171.74,20.25 C172.024144,19.6716232 172.459539,19.1809399 173,18.83 C173.710875,18.3727292 174.545448,18.1457532 175.39,18.18 C176.122558,18.1579438 176.850648,18.3015108 177.52,18.6 C178.090815,18.8489164 178.597077,19.2251925 179,19.7 C179.372893,20.159219 179.63929,20.6954287 179.78,21.27 C179.942125,21.8766145 180.022833,22.5021006 180.020072,23.13 L180.020072,31.05 L176.88,31.05 L176.88,24.7 C176.88,24.35 176.88,23.96 176.83,23.53 C176.793301,23.1198454 176.702513,22.7163464 176.56,22.33 C176.416847,21.9586431 176.174765,21.6335609 175.86,21.39 C175.489461,21.1204452 175.037599,20.9862987 174.58,21.01 C174.126188,20.9980045 173.675365,21.0868032 173.26,21.27 C172.912288,21.4344468 172.607594,21.677518 172.37,21.98 C172.136055,22.2766555 171.962764,22.616442 171.86,22.98 C171.755159,23.3714299 171.701379,23.7747751 171.7,24.18 L171.7,31.03 L168.57,31.03 L168.57,11.28 L171.7,11.28 L171.68,20.25 Z" id="Path" fill="#F58320"></path>
        </g>
    </g>
</svg>