<?xml version="1.0" encoding="UTF-8"?>
<svg width="439px" height="123px" viewBox="0 0 439 123" version="1.1" xmlns="http://www.w3.org/2000/svg" xmlns:xlink="http://www.w3.org/1999/xlink">
    <!-- Generator: Sketch 45.2 (43514) - http://www.bohemiancoding.com/sketch -->
    <title>Group Copy 2</title>
    <desc>Created with Sketch.</desc>
    <defs></defs>
    <g id="inversoft-ui" stroke="none" stroke-width="1" fill="none" fill-rule="evenodd">
        <g id="Group-Copy-2" fill="#FFFFFF">
            <path d="M161.828179,60.8019301 C161.828179,55.6548713 158.848058,50.5882353 152.887816,50.5882353 C147.233227,50.5882353 143.718213,55.8157169 143.718213,60.8823529 C143.718213,66.1098346 147.233227,71.1764706 152.887816,71.1764706 C158.848058,71.1764706 161.828179,66.0294118 161.828179,60.8019301 Z M132,92.7914158 L132,47.5027019 C132,41.5477845 135.999653,40.6075344 137.999479,40.6075344 C139.922389,40.6075344 143.460543,41.4694303 143.998958,46.1706809 L144.229707,46.1706809 C146.537199,43.0365138 150.844517,40.2941176 156.459414,40.2941176 C167.612292,40.2941176 174.611684,49.8533272 174.611684,60.7445577 C174.611684,71.6357882 167.919957,81.5084144 156.382498,81.5084144 C151.690598,81.5084144 147.15253,79.4712058 144.768122,76.1019762 L144.614289,76.1019762 L144.614289,92.7914158 C144.614289,98.9813957 140.383887,100 138.307145,100 C136.230402,100 132,98.9813957 132,92.7914158 Z M203.37457,64.2647059 L203.37457,62.9411765 L201.703164,62.9411765 C195.972627,62.9411765 189.525773,63.6418685 189.525773,68.2352941 C189.525773,71.1937716 192.550223,72.2058824 195.176719,72.2058824 C200.429711,72.2058824 203.37457,69.0916955 203.37457,64.2647059 Z M188.639899,52.3495862 C187.540966,52.8975621 186.520528,53.1324089 185.657081,53.1324089 C183.145234,53.1324089 181.104359,51.1753523 181.104359,48.5137553 C181.104359,47.0263923 181.73232,45.2259002 184.165672,43.7385372 C188.247423,41.2335048 192.957135,40.2941176 197.117381,40.2941176 C210.226081,40.2941176 215.092784,46.7132633 215.092784,60.8823529 L215.092784,74.581749 C215.092784,80.2963543 211.089528,81.3140237 209.127148,81.3140237 C207.400253,81.3140237 204.024959,80.5312011 203.318502,76.3822411 L203.083017,76.3822411 C201.120637,79.5918139 196.64641,81.4705882 192.015193,81.4705882 C185.814071,81.4705882 177.80756,78.41758 177.80756,69.2585551 C177.80756,57.9859092 191.544221,56.1071349 202.926026,56.1071349 L202.926026,55.4808768 C202.926026,52.0364572 200.257189,49.8445538 196.253934,49.8445538 C193.742087,49.8445538 191.151745,51.09707 188.639899,52.3495862 Z M221.243485,79.3942841 C224.198309,81.3851276 229.252615,82.5 233.684852,82.5 C241.616224,82.5 250.247423,78.9961154 250.247423,68.9622642 C250.247423,61.2377913 243.793463,58.1320755 237.883814,56.7783019 C232.907267,55.6634295 230.807786,55.1059933 230.807786,52.8762486 C230.807786,50.5668701 233.218301,49.690899 235.628816,49.690899 C237.572779,49.690899 239.050192,50.1687014 240.838638,51.2039401 C242.082775,51.9206437 243.093636,52.3188124 244.104497,52.3188124 C247.059322,52.3188124 248.925527,50.1687014 248.925527,47.3815205 C248.925527,45.7888457 248.2257,44.1165372 245.659668,42.6034961 C243.093636,41.090455 238.505882,40.2941176 235.162265,40.2941176 C227.775203,40.2941176 219.066245,44.1165372 219.066245,53.5929523 C219.066245,61.0785239 224.975895,63.9453385 230.341235,65.2194784 C235.628816,66.4936182 238.039331,67.2103219 238.039331,69.6789678 C238.039331,72.2272475 235.551057,73.1032186 233.451576,73.1032186 C231.429854,73.1032186 229.330373,72.4661487 227.075376,70.8734739 C225.597963,69.8382353 224.431585,69.4400666 223.187448,69.4400666 C220.388141,69.4400666 218.28866,71.6698113 218.28866,74.536626 C218.28866,76.1293008 218.988487,77.8812431 221.243485,79.3942841 Z M255.332832,79.3942841 C258.287656,81.3851276 263.341962,82.5 267.774199,82.5 C275.705571,82.5 284.33677,78.9961154 284.33677,68.9622642 C284.33677,61.2377913 277.88281,58.1320755 271.973161,56.7783019 C266.996614,55.6634295 264.897133,55.1059933 264.897133,52.8762486 C264.897133,50.5668701 267.307648,49.690899 269.718163,49.690899 C271.662127,49.690899 273.139539,50.1687014 274.927986,51.2039401 C276.172122,51.9206437 277.182983,52.3188124 278.193845,52.3188124 C281.148669,52.3188124 283.014874,50.1687014 283.014874,47.3815205 C283.014874,45.7888457 282.315048,44.1165372 279.749015,42.6034961 C277.182983,41.090455 272.595229,40.2941176 269.251612,40.2941176 C261.86455,40.2941176 253.155592,44.1165372 253.155592,53.5929523 C253.155592,61.0785239 259.065242,63.9453385 264.430582,65.2194784 C269.718163,66.4936182 272.128678,67.2103219 272.128678,69.6789678 C272.128678,72.2272475 269.640404,73.1032186 267.540924,73.1032186 C265.519201,73.1032186 263.419721,72.4661487 261.164723,70.8734739 C259.68731,69.8382353 258.520932,69.4400666 257.276795,69.4400666 C254.477488,69.4400666 252.378007,71.6698113 252.378007,74.536626 C252.378007,76.1293008 253.077834,77.8812431 255.332832,79.3942841 Z M319.491409,60.8019301 C319.491409,55.6548713 316.511288,50.5882353 310.551046,50.5882353 C304.896458,50.5882353 301.381443,55.8157169 301.381443,60.8823529 C301.381443,66.1098346 304.896458,71.1764706 310.551046,71.1764706 C316.511288,71.1764706 319.491409,66.0294118 319.491409,60.8019301 Z M288.597938,92.7914158 L288.597938,47.5027019 C288.597938,41.5477845 292.597591,40.6075344 294.597417,40.6075344 C296.520327,40.6075344 300.058481,41.4694303 300.596896,46.1706809 L300.827645,46.1706809 C303.135137,43.0365138 307.442455,40.2941176 313.057352,40.2941176 C324.21023,40.2941176 331.209622,49.8533272 331.209622,60.7445577 C331.209622,71.6357882 324.517895,81.5084144 312.980436,81.5084144 C308.288536,81.5084144 303.750468,79.4712058 301.36606,76.1019762 L301.212227,76.1019762 L301.212227,92.7914158 C301.212227,98.9813957 296.981825,100 294.905083,100 C292.82834,100 288.597938,98.9813957 288.597938,92.7914158 Z M377.017182,61.2377913 C377.017182,74.218091 367.308191,82.5 355.672812,82.5 C344.11449,82.5 334.405498,74.218091 334.405498,61.2377913 C334.405498,48.2574917 344.11449,40.2941176 355.672812,40.2941176 C367.308191,40.2941176 377.017182,48.2574917 377.017182,61.2377913 Z M365.298969,60.8019301 C365.298969,55.6548713 362.076009,50.5882353 356.167249,50.5882353 C350.258489,50.5882353 347.189003,55.6548713 347.189003,60.8019301 C347.189003,65.948989 350.335226,71.1764706 356.243986,71.1764706 C362.152746,71.1764706 365.298969,65.948989 365.298969,60.8019301 Z M382.408935,74.1995032 C382.408935,80.4431523 386.581592,81.4705882 388.629988,81.4705882 C390.678383,81.4705882 394.851041,80.4431523 394.851041,74.1995032 L394.851041,60.4476685 C394.851041,55.9427571 397.278769,52.4652817 401.603159,52.1491476 C406.382749,51.8330134 407.975945,48.9087727 407.975945,45.984532 C407.975945,42.7441572 405.92755,40.2941176 402.437691,40.2941176 C398.492633,40.2941176 395.989038,43.6925596 394.547575,47.0119679 L394.395842,47.0119679 C394.395842,41.5586542 390.299051,40.5312182 388.402388,40.5312182 C386.429859,40.5312182 382.408935,41.4796206 382.408935,47.4861691 L382.408935,74.1995032 Z M417.027291,41.1480076 L415.501408,41.1480076 C411.076349,41.1480076 410.237113,44.4686907 410.237113,45.9709045 C410.237113,47.5521822 411.076349,50.8728653 415.501408,50.8728653 L417.103585,50.8728653 L417.103585,67.4762808 C417.103585,75.8570525 420.460527,81.4705882 430.607646,81.4705882 C435.108999,81.4705882 438.694823,80.0474383 438.694823,75.9361164 C438.694823,73.7223276 437.168941,71.2713472 434.040882,71.2713472 L433.049058,71.2713472 C430.302469,71.2713472 429.310646,69.5319418 429.310646,65.8950032 L429.310646,50.8728653 L433.735705,50.8728653 C438.160765,50.8728653 439,47.5521822 439,45.9709045 C439,44.4686907 438.160765,41.1480076 433.735705,41.1480076 L429.310646,41.1480076 L429.310646,37.1157495 C429.310646,31.0278305 425.114469,30 423.207115,30 C421.223468,30 417.027291,31.0278305 417.027291,37.1157495 L417.027291,41.1480076 Z" id="passport-copy"></path>
            <g id="passport-copy-2">
                <path d="M5.08027632,27.8029122 L50.4379357,1.46719165 C53.0420452,-0.0446158427 56.2577852,-0.0446158427 58.8615544,1.46719165 L104.219554,27.8029122 C106.801881,29.3024756 108.391031,32.0618219 108.391031,35.0463238 L108.391031,87.8106161 C108.391031,90.795118 106.801881,93.5544642 104.219554,95.0540276 L58.8615544,121.389748 C56.2577852,122.901556 53.0420452,122.901556 50.4379357,121.389748 L5.08027632,95.0540276 C2.49760957,93.5544642 0.908459454,90.795118 0.908459454,87.8106161 L0.908459454,35.0463238 C0.908459454,32.0618219 2.49760957,29.3024756 5.08027632,27.8029122 Z M42.6521739,51.6055995 C40.2826087,51.6055995 38.8898936,52.1122729 38.0001897,53.203761 C33.3511853,57.6099401 30.4513012,63.8411718 30.4513012,70.7495709 C30.4513012,82.2944064 48.5374564,101.964229 53.4366269,106.400679 C54.1244984,107.023768 55.1714519,107.023768 55.8596638,106.400679 C60.7588343,101.964229 78.8446491,82.2944064 78.8446491,70.7495709 C78.8446491,65.3723658 77.0883813,60.4053385 74.1173615,56.3899506 C72.852236,54.6798565 69.9021739,55.1241631 68.7260276,55.6461209 C67.5498813,56.1680786 64.536226,57.3478643 62.7934783,57.4698722 C50.3794555,57.0855432 45.0217391,51.6055995 42.6521739,51.6055995 Z M69.6585854,30.9380847 C69.6585854,22.6818131 62.9606019,15.9890465 54.6986551,15.9890465 C46.4363679,15.9890465 39.7383843,22.6818131 39.7383843,30.9380847 C39.7383843,39.1943562 46.4363679,45.8871229 54.6986551,45.8871229 C62.9606019,45.8871229 69.6585854,39.1943562 69.6585854,30.9380847 Z" id="Combined-Shape"></path>
            </g>
        </g>
    </g>
</svg>